<mxfile host="app.diagrams.net" modified="2023-05-22T04:38:42.500Z" agent="Mozilla/5.0 (Windows NT 10.0; Win64; x64) AppleWebKit/537.36 (KHTML, like Gecko) Chrome/113.0.0.0 Safari/537.36" version="21.2.9" etag="cYYao77B94KWnzr_kWrp" type="github">
  <diagram name="第 1 页" id="oAVNNJwCbYLShspRuA5w">
    <mxGraphModel>
      <root>
        <mxCell id="0" />
        <mxCell id="1" parent="0" />
      </root>
    </mxGraphModel>
  </diagram>
</mxfile>
